<?xml version="1.0" encoding="utf-8"?>
<!-- Generator: Adobe Illustrator 16.0.0, SVG Export Plug-In . SVG Version: 6.00 Build 0)  -->
<!DOCTYPE svg PUBLIC "-//W3C//DTD SVG 1.1//EN" "http://www.w3.org/Graphics/SVG/1.1/DTD/svg11.dtd">
<svg version="1.1" id="Layer_2" xmlns="http://www.w3.org/2000/svg" xmlns:xlink="http://www.w3.org/1999/xlink" x="0px" y="0px"
	 width="1977.031px" height="800px" viewBox="0 0 1977.031 800" enable-background="new 0 0 1977.031 800" xml:space="preserve">
<g id="Layer_3" display="none">
	<g display="inline">
		<g>
			<circle fill="#FFFFFF" cx="408.39" cy="373.734" r="377.083"/>
		</g>
	</g>
</g>
<circle id="bg_2_" fill="#30B4AA" cx="400.246" cy="401.252" r="377.873"/>
<line display="none" fill="none" stroke="#000000" stroke-miterlimit="10" x1="523.541" y1="215.6" x2="523.541" y2="215.6"/>
<path display="none" fill="#BFBFBF" d="M632.438,376.846c-2.016-3.906-4.219-7.709-6.545-11.428c2.846,3.531,4.529,5.92,5.068,6.67
	c0.105,0.166,0.166,0.248,0.166,0.248s0.062,0.021,0.062,0.041C631.709,373.812,632.123,375.307,632.438,376.846z"/>
<circle display="none" fill="#FBB03B" cx="481.907" cy="456.631" r="89.622"/>
<g id="Layer_4" display="none">
</g>
<path fill="#FFFFFF" d="M372.683,468.879c0,61.65,49.973,111.625,111.626,111.625c32.288,0,61.353-13.696,81.724-35.611
	c2.45-2.597,5.063-5.329,7.23-8.164c4.16-5.232,11.404-7.648,17.609-7.788c1.186-0.026,2.403-0.19,3.626-0.19
	c18.333,0,33.165,14.832,33.165,33.164c0,4.039-1.17,7.758-2.038,11.463c-0.841,3.604-4.7,10.479-4.7,10.479
	c-11.571,17.408-108.516,144.34-276.514,98.252c-36.622-8.2-69.553-26.123-96.001-50.918l-1.994,0.084
	c-31.6-29.514-95.44-101.064-95.44-208.186V281.409c0,0,1.909-8.673,3.691-14.083c3.521-14.253,17.376-24.407,32.725-24.407
	c18.055,0,33.224,15.5,33.224,34.82l0.724,85.418h-0.089l-0.357,56.261c0,0-0.661,7.293,8.741,7.293
	c9.383,0,8.295-8.645,8.295-8.645V206.274c0-0.599,1.322-1.223,1.322-1.824c0-19.534,16-35.422,35.555-35.422
	c19.536,0,33.772,15.844,33.772,35.357c0,0.019,0,0.057,0,0.113c0,4.536-0.137,135.021-0.137,135.021
	c0.035,5.977,6.038,7.364,10.651,7.364c4.616,0,10.2-1.967,10.168-7.364c0,0,1.767-217.866,1.767-218.038
	c0-19.556,16.116-35.419,35.671-35.419c19.577,0,33.644,15.992,33.644,35.548c0,2.404,0.21,170.531,0.21,170.531
	s-0.166,4.316,1.142,8.223c0.969,2.917,2.774,5.604,5.027,6.654c22.883-10.755,48.474-16.765,75.438-16.765
	c63.648,0,119.486,33.422,150.914,83.678c0.9,1.437,1.782,2.875,2.619,4.334c0,0,0,0.022,0.02,0.044
	c0.773,1.289,1.524,2.597,2.254,3.907c0.022,0.042,0.022,0.086,0.042,0.106c1.053,2.19,1.847,4.509,2.363,6.934
	c0.106,1.009,0.149,2.04,0.149,3.07c0,18.312-14.834,33.167-33.167,33.167c-6.654,0-12.836-1.975-18.01-5.346
	c-0.687-0.451-1.373-0.925-2.039-1.439c-3.307-2.509-8.395-9.122-8.395-9.122c-19.748-31.448-54.739-52.337-94.604-52.337
	C422.655,357.25,372.683,407.225,372.683,468.879z"/>
<circle fill="#FFFFFF" cx="630.318" cy="480.01" r="37.772"/>
<path display="none" fill="#BFBFBF" stroke="#000000" stroke-miterlimit="10" d="M535.582,388.584"/>
<polygon display="none" fill="#FBB03B" points="578.934,486 502.008,486 499.459,469.808 580.66,469.768 "/>
<rect x="843.68" y="244.904" fill="none" width="925.896" height="579.098"/>
<text transform="matrix(1 0 0 1 843.6758 569.7695)" fill="#30B4AA" font-family="'BryantPro-Bold'" font-size="482" letter-spacing="-27">ecoo</text>
<g display="none">
</g>
</svg>
